PathFileType	4	(X/Y/Z)	C:/Users/opensim2020/Desktop/walking_exp_matlab/subject02_walking10_straight_02.trc	
DataRate	CameraRate	NumFrames	NumMarkers	Units	OrigDataRate	OrigDataStartFrame	OrigNumFrames	
100.00	100.00	7	43	mm	100.00	1435	280	
Frame#	Time	LFHD			RFHD			LBHD			RBHD			C7			T10			CLAV			STRN			RBAK			LSHO			LUPA			LELB			LFRM			LWRA			LWRB			LFIN			RSHO			RUPA			RELB			RFRM			RWRA			RWRB			RFIN			LASI			RASI			LPSI			RPSI			LTHI			LKNE			LTIB			LANK			LHEE			LTOE			RTHI			RKNE			RTIB			RANK			RHEE			RTOE			*39			*40			*41			*42			
		X1	Y1	Z1	X2	Y2	Z2	X3	Y3	Z3	X4	Y4	Z4	X5	Y5	Z5	X6	Y6	Z6	X7	Y7	Z7	X8	Y8	Z8	X9	Y9	Z9	X10	Y10	Z10	X11	Y11	Z11	X12	Y12	Z12	X13	Y13	Z13	X14	Y14	Z14	X15	Y15	Z15	X16	Y16	Z16	X17	Y17	Z17	X18	Y18	Z18	X19	Y19	Z19	X20	Y20	Z20	X21	Y21	Z21	X22	Y22	Z22	X23	Y23	Z23	X24	Y24	Z24	X25	Y25	Z25	X26	Y26	Z26	X27	Y27	Z27	X28	Y28	Z28	X29	Y29	Z29	X30	Y30	Z30	X31	Y31	Z31	X32	Y32	Z32	X33	Y33	Z33	X34	Y34	Z34	X35	Y35	Z35	X36	Y36	Z36	X37	Y37	Z37	X38	Y38	Z38	X39	Y39	Z39	X40	Y40	Z40	X41	Y41	Z41	X42	Y42	Z42	X43	Y43	Z43	

36	0.350	-978.43738	835.11847	1743.18835	-1123.26367	831.75372	1724.50366	-971.57245	950.93872	1646.71716	-1113.18860	959.41278	1624.53101	-1046.33813	992.72937	1515.18066	-1052.94800	1049.61157	1242.09326	-1036.11389	851.09717	1449.01282	-1056.58752	800.90955	1276.45740	-1118.45544	1050.28235	1347.70068	-865.40302	919.94623	1484.33252	-789.20990	953.18866	1283.90161	-783.82056	971.21936	1142.68909	-780.64337	964.59375	1009.13354	-821.20551	910.27008	885.99084	-787.85474	956.04120	886.53137	-789.32349	936.76105	822.30774	-1232.10962	906.70026	1491.40735	-1327.15735	905.26215	1302.36108	-1350.02161	864.18201	1160.60889	-1363.14258	803.72400	1055.59875	-1336.34436	725.63605	947.76422	-1373.63306	765.22681	931.40167	-1371.82715	710.54663	883.74475	-939.52026	798.34802	982.64923	-1197.06079	833.92548	964.40143	-994.38397	1018.50305	1021.33984	-1106.61169	1038.16772	1023.91193	-866.92761	794.84198	679.11206	-905.38165	766.16498	480.20157	-906.87213	769.62347	285.85022	-935.48322	702.74561	72.18640	-989.42554	728.31140	39.94932	-925.53699	545.41772	61.47136	-1239.67786	981.49554	670.50867	-1199.88940	1029.60974	465.22769	-1189.45117	1131.41113	304.75220	-1145.13745	1203.50549	125.37771	-1082.46191	1239.90588	79.15765	-1184.23718	1071.44702	41.50875	-1070.23254	946.44122	1789.66931	-3360.27539	2845.11719	1034.16650						 
37	0.360	-977.13269	827.45654	1742.43481	-1121.49097	824.33221	1723.79651	-969.97784	943.52850	1645.79077	-1111.59839	951.78540	1623.64795	-1044.47461	985.02411	1513.99304	-1050.35168	1040.65186	1240.54602	-1034.42529	843.07397	1448.39783	-1054.88281	792.11938	1276.15320	-1116.11438	1042.07593	1346.16077	-863.60095	911.94171	1483.75769	-787.37360	944.68878	1283.20386	-781.43781	962.81445	1142.02649	-778.40509	956.13635	1008.54437	-818.41034	901.94592	885.39313	-785.20868	947.72162	885.96088	-786.30713	928.44879	821.79041	-1229.73596	899.24902	1490.06897	-1325.33777	898.39532	1301.53589	-1348.33337	858.49561	1159.53442	-1361.75256	798.63342	1054.18970	-1334.53760	721.07477	945.76617	-1372.06250	760.58246	929.75452	-1369.96924	706.23535	881.48090	-938.07147	787.17041	982.66510	-1195.52515	824.25745	964.10516	-991.32831	1008.07422	1020.18396	-1103.43774	1028.40283	1022.59332	-865.98846	786.19623	677.67340	-903.89111	760.36041	478.37656	-907.39459	765.62207	283.83167	-935.74500	700.25470	71.18653	-989.95404	725.88153	41.62148	-924.61237	542.02118	53.41654	-1238.71729	973.28851	670.48297	-1199.97156	1022.19293	465.43002	-1189.48950	1126.75513	306.68588	-1145.66968	1201.75452	128.43640	-1082.80518	1238.63159	82.95551	-1184.61768	1071.23193	41.52903	-1068.69800	939.05695	1788.81396	-3360.38354	2845.17358	1034.16553						 
38	0.370	-975.37170	820.32013	1742.06787	-1120.06250	816.72601	1723.35376	-968.28064	935.80591	1645.22339	-1109.89429	944.09113	1622.97974	-1042.41260	977.51917	1512.94861	-1047.40234	1031.72839	1239.51453	-1032.53564	834.97955	1447.97290	-1053.07056	783.49060	1275.87292	-1113.34436	1033.90332	1344.84399	-861.70996	903.84418	1483.16455	-785.01843	936.29114	1282.53430	-779.40192	953.68317	1141.53174	-775.73383	947.40924	1007.98944	-815.91296	893.30658	884.20441	-782.45721	939.18799	885.34943	-783.40009	919.86969	820.96881	-1227.70862	892.24316	1489.02222	-1323.92480	891.75421	1300.78003	-1346.21680	852.94263	1158.12976	-1360.25024	793.61401	1052.73193	-1332.83997	716.50543	943.74664	-1370.46899	756.06293	928.06055	-1367.98230	702.17889	879.32025	-936.98315	777.02673	982.32520	-1193.84912	814.38861	963.78363	-988.06055	997.46588	1019.06232	-1100.09131	1018.52356	1021.10022	-864.60791	777.95972	677.02368	-901.81964	754.86316	477.47342	-908.47473	760.26080	282.56982	-934.25934	695.04639	71.50835	-987.93945	722.38635	43.37855	-923.73889	536.45813	48.76081	-1237.72974	964.82361	670.55420	-1200.22424	1014.44110	465.79941	-1189.60583	1121.75708	308.84839	-1146.47034	1199.75830	131.87512	-1083.58374	1236.97498	87.21774	-1185.00073	1070.96179	41.68934	-1067.12585	931.62823	1788.20776	-3357.45801	2845.92480	1034.19666						 
39	0.380	-973.69995	812.51587	1742.38086	-1118.49023	809.21655	1723.30859	-966.54205	928.08716	1645.10205	-1108.12549	936.40143	1622.72913	-1040.16492	969.92932	1512.29102	-1044.52490	1022.64545	1238.87195	-1030.59692	826.94635	1447.76379	-1051.19800	774.95929	1276.14990	-1110.34009	1025.72876	1343.74023	-859.53564	895.69580	1482.61804	-782.79083	927.37646	1281.72632	-777.01349	944.65710	1140.75488	-773.13440	938.48688	1007.30493	-812.97028	884.78961	883.66937	-779.52441	930.14838	884.49634	-780.26044	911.09979	820.59973	-1225.91785	885.36218	1488.16138	-1322.22681	885.27557	1299.81323	-1344.25977	847.42950	1156.87939	-1357.85522	788.60980	1050.92151	-1330.90906	712.27917	941.62543	-1368.85596	751.70416	926.35004	-1366.36377	698.21240	877.13910	-935.43646	766.47363	982.36853	-1191.91260	804.27863	963.31927	-984.68347	986.97943	1018.33832	-1096.75220	1008.65399	1019.59961	-862.85797	769.74115	677.53851	-899.47705	748.31860	477.71515	-908.74438	753.22955	283.16080	-932.64264	689.66144	71.17919	-986.81293	719.12299	44.30119	-921.53174	532.04236	46.12040	-1236.55688	955.90497	670.64990	-1200.48755	1006.19977	466.30850	-1189.94934	1116.32495	311.31464	-1147.38037	1197.39722	135.71362	-1084.51611	1235.13147	92.14975	-1185.20007	1070.79272	41.40909	-1065.49902	924.13861	1788.04272	-3357.44067	2845.80176	1034.19434						 
40	0.390	-973.27325	804.58179	1742.31116	-1116.60413	801.57245	1723.61462	-964.69110	920.38013	1645.43701	-1106.25671	928.77612	1622.86975	-1037.81470	962.00610	1512.16162	-1041.98328	1013.66064	1238.51965	-1028.68127	818.91107	1447.78564	-1049.11511	766.46881	1276.51807	-1107.24939	1017.61127	1342.93127	-857.32147	887.55719	1482.29236	-780.35846	918.72742	1281.32605	-774.64154	935.26526	1140.15344	-770.50610	929.37018	1006.76984	-810.14667	875.79163	883.00049	-776.66571	921.44800	884.09979	-777.10278	902.79352	820.02527	-1224.36121	878.56628	1487.62756	-1319.97437	879.04700	1298.68787	-1342.35229	841.96051	1155.85205	-1356.01917	783.77917	1049.40247	-1329.08313	708.23358	939.47583	-1367.16003	747.64178	924.70953	-1364.43237	694.44257	874.93329	-933.77173	755.96790	982.44678	-1189.99402	794.37830	962.90991	-981.51575	976.72546	1018.36316	-1093.52722	998.81189	1018.20465	-860.77374	761.86395	678.76202	-897.46454	740.04865	479.11935	-904.56915	746.10522	284.49667	-932.75116	688.61719	71.01555	-986.72314	718.86310	44.55551	-921.18774	531.39557	43.38830	-1235.34473	946.64819	670.97571	-1200.90479	997.26318	467.00357	-1189.98010	1110.37683	314.17792	-1148.45471	1194.81604	140.02077	-1085.50818	1232.91638	97.51179	-1185.60156	1070.42725	41.47433	-1063.85303	916.67535	1788.26367	-3357.38818	2845.79565	1034.15759						 
41	0.400	-970.61108	797.41669	1743.24377	-1115.02124	794.09949	1723.99756	-962.76581	912.67706	1646.14673	-1104.32092	921.14221	1623.25476	-1035.56787	953.94745	1512.50293	-1039.71313	1004.70270	1238.49951	-1026.70288	811.14496	1448.32068	-1047.06689	757.99908	1277.19238	-1104.33020	1009.65887	1342.51501	-854.98145	879.31464	1482.26147	-777.87811	909.71851	1281.09033	-772.28284	926.05591	1139.98572	-767.85645	920.01099	1006.48401	-807.26630	866.93994	882.54059	-773.74585	912.34082	883.72632	-774.03375	893.72375	819.76532	-1222.71631	871.58093	1487.20386	-1317.76257	873.04315	1297.70679	-1340.03796	836.52295	1154.84375	-1354.12329	779.16064	1048.14258	-1327.32056	704.34705	937.59027	-1365.39795	743.90564	923.23193	-1362.82605	691.23047	873.20801	-931.79437	745.56348	982.95367	-1187.60303	784.10242	962.56958	-978.57849	966.72205	1019.39764	-1090.69006	988.82019	1017.25031	-859.35217	753.64557	680.62726	-896.07532	730.12500	481.07083	-898.50787	738.86023	285.81509	-933.40094	689.03027	71.68699	-986.44891	718.77563	44.77442	-923.86139	530.95245	41.98268	-1234.01245	936.98639	671.39948	-1201.50098	987.74268	467.89816	-1190.47083	1103.62842	317.19104	-1149.63733	1191.46167	144.70038	-1086.70569	1230.28467	103.46060	-1186.03979	1070.00989	41.59918	-1062.06860	909.10126	1788.74280	-3360.47729	2845.27148	1034.08350						 
42	0.410	-968.87695	789.54718	1744.03601	-1113.11499	786.60925	1724.64697	-960.83136	904.84698	1646.83972	-1102.39771	913.52832	1623.89587	-1033.47266	945.83527	1513.20532	-1037.71777	995.83893	1238.60034	-1024.79224	803.31067	1448.93616	-1045.06995	749.48700	1278.11475	-1101.50940	1001.40814	1342.16394	-852.74719	871.06024	1482.51697	-775.76587	900.11029	1280.72339	-770.02069	915.69501	1139.82446	-765.14386	910.40320	1006.46460	-804.35889	857.69373	882.11334	-770.71326	903.41467	883.95630	-770.87219	884.59753	819.67010	-1221.20410	864.39801	1487.20825	-1314.97815	867.20526	1297.00073	-1337.81934	831.03284	1154.35742	-1352.17981	774.62598	1047.15698	-1325.61389	700.76886	935.93024	-1363.59631	740.53650	921.98523	-1361.29419	688.17090	871.44849	-929.20471	735.35461	984.01776	-1184.80188	773.79199	962.18378	-975.60229	956.65979	1020.79755	-1088.32019	978.53674	1016.92950	-858.85468	744.26184	682.29724	-894.64020	719.62396	482.53201	-894.65063	732.00189	287.29919	-933.06354	687.23718	72.79013	-986.03723	718.62048	45.11443	-925.96899	529.14020	41.05454	-1232.73132	926.84888	671.95093	-1202.43213	977.34772	468.78851	-1191.24670	1096.25635	320.53363	-1151.01624	1187.58130	149.81845	-1087.87280	1226.81689	109.97895	-1186.44604	1069.54590	41.66017	-1060.35339	901.46918	1789.37988	-3357.17725	2845.85425	1034.09277						 
